<?xml version="1.0" encoding="utf-8"?>
<!-- Svg Vector Icons : http://www.onlinewebfonts.com/icon -->
<!DOCTYPE svg PUBLIC "-//W3C//DTD SVG 1.1//EN" "http://www.w3.org/Graphics/SVG/1.1/DTD/svg11.dtd">
<svg version="1.1" xmlns="http://www.w3.org/2000/svg" xmlns:xlink="http://www.w3.org/1999/xlink" x="0px" y="0px" viewBox="0 0 1000 1000" enable-background="new 0 0 1000 1000" xml:space="preserve">
<metadata> Svg Vector Icons : http://www.onlinewebfonts.com/icon </metadata>
<g><path d="M795.2,41.4H212.6V109H10v317c0,122.5,136.7,223.4,270.9,233.8c44.1,47.2,121.5,81.5,190.5,96.1v82.9c-66,20.3-183.8,67.9-190.5,119.7h452.6c-6.8-51.9-136.6-99.5-202.7-119.7V756c69.2-14.6,150.2-48.9,194.3-96.1C859.3,649.4,990,548.6,990,426.1V109H795.2V41.4z M72.2,169.1h135.6v273.1c0,53.9,13.9,105.2,38.4,151.3c-101.5-32.3-174-115.6-174-213V169.1z M603.5,502.2l-101.2-55.8l-101.4,55.8l19.4-118l-81.9-83.5l113.2-17.2l50.7-107.3l50.6,107.3l113.2,17.2l-81.9,83.5L603.5,502.2L603.5,502.2z M753.9,602.2c24.6-48.3,38.7-101.6,38.7-158.1V170.9h136v208.8C928.6,481.5,855.7,568.4,753.9,602.2z"/></g>
</svg>